<svg xmlns="http://www.w3.org/2000/svg" viewBox="0 0 100 100">
  <circle cx="50" cy="50" r="45" fill="#25D366"/>
  <path d="M50 20c-16.5 0-30 12.5-30 28 0 5 1.3 9.7 3.6 13.8L20 75l14-3.5c4 2 8.5 3 13 3 16.5 0 30-12.5 30-28S66.5 20 50 20z" fill="white"/>
  <path d="M65 56c-.8-.4-4.7-2.3-5.4-2.5-.7-.3-1.2-.4-1.8.4-.5.7-2 2.5-2.5 3-.5.5-.9.6-1.7.2-.8-.4-3.4-1.2-6.4-4-2.4-2.1-4-4.7-4.4-5.5-.5-.8 0-1.2.4-1.6.3-.3.8-.9 1.1-1.3.4-.4.5-.8.7-1.3.3-.5.1-1-.1-1.4-.2-.4-1.8-4.2-2.4-5.8-.6-1.5-1.3-1.3-1.8-1.3h-1.5c-.5 0-1.4.2-2.1 1-.7.8-2.8 2.7-2.8 6.6s2.9 7.7 3.3 8.2c.4.5 5.6 8.6 13.7 12 1.9.8 3.4 1.3 4.6 1.7 1.9.6 3.7.5 5 .3 1.5-.2 4.7-1.9 5.4-3.8.6-1.8.6-3.4.4-3.8-.1-.3-.6-.5-1.4-.9z" fill="#25D366"/>
</svg>
